<svg viewBox="0 0 256 256" xmlns="http://www.w3.org/2000/svg">
  <rect fill="#202225" width="256" height="256"/>
  <g stroke="#fff" stroke-width="3" fill="#000">
    <path fill="none" d="m77 63 36-23m0 0 38 6m0 0 66 73m0 0-24-42m0 0-80-37m80 37 2 64m-52-36 8-59m0 0 38 139m-46-80 46 80m6-44-52-36m0 0L77 63m36-23L55 179m58-139-16 99M77 63l20 76M77 63l74-17m42 31L45 91m0 0 32-28m0 0-38 66m0 0 6-38m0 0 10 88m-16-50 50 86m0 0-34-36m60 23-60-23m34 36 26-13m0 0 80-61m-36 66-44-5m74-17-30 22m30-22 6-44M39 129l58 10m-58-10 120 78m0 0-62-68m46-34-28 97m-18-63 98 2m-52-36L45 91m98 14 50-28m-50 28-46 34m0 0 18 63m-18-63-42 40m162-60-22 22m22-22-58 88m30-22-74 17"/>
    <circle cx="115" cy="202" r="8.5"/>
    <circle cx="113" cy="40" r="8.5"/>
    <circle cx="151" cy="46" r="8.5"/>
    <circle cx="193" cy="77" r="8.5"/>
    <circle cx="217" cy="119" r="8.5"/>
    <circle cx="189" cy="185" r="8.5"/>
    <circle cx="159" cy="207" r="8.5"/>
    <circle cx="89" cy="215" r="8.5"/>
    <circle cx="55" cy="179" r="8.5"/>
    <circle cx="39" cy="129" r="8.5"/>
    <circle cx="45" cy="91" r="8.5"/>
    <circle cx="77" cy="63" r="8.5"/>
    <circle cx="195" cy="141" r="8.5"/>
    <circle cx="143" cy="105" r="8.5"/>
    <circle cx="97" cy="139" r="8.5"/>
  </g>
</svg>